<svg xmlns="http://www.w3.org/2000/svg" viewBox="0 0 32 40" x="0px" y="0px"><path d="M30,15a1,1,0,0,0-1,1V26a3,3,0,0,1-3,3H6a3,3,0,0,1-3-3V6A3,3,0,0,1,6,3H16a1,1,0,0,0,0-2H6A5,5,0,0,0,1,6V26a5,5,0,0,0,5,5H26a5,5,0,0,0,5-5V16A1,1,0,0,0,30,15Z"/><path d="M7,19.13V24a1,1,0,0,0,1,1h4.87A3,3,0,0,0,15,24.12L30.12,9a3,3,0,0,0,0-4.27L27.26,1.88a3.09,3.09,0,0,0-4.27,0L7.88,17A3.06,3.06,0,0,0,7,19.13ZM24.41,3.3a1,1,0,0,1,1.44,0L28.7,6.15a1,1,0,0,1,0,1.44L26.55,9.74,22.26,5.45ZM9,19.13a1,1,0,0,1,.3-.72L20.85,6.86l4.29,4.29L13.59,22.7a1,1,0,0,1-.72.3H9Z"/></svg>