<svg xmlns="http://www.w3.org/2000/svg" viewBox="0 0 68 85" x="0px" y="0px"><path fill="#000000" fill-rule="evenodd" d="M570,244 C551.222319,244 536,228.777681 536,210 C536,191.222319 551.222319,176 570,176 C588.777681,176 604,191.222319 604,210 C604,228.777681 588.777681,244 570,244 Z M570,240 C586.568542,240 600,226.568542 600,210 C600,193.431458 586.568542,180 570,180 C553.431458,180 540,193.431458 540,210 C540,226.568542 553.431458,240 570,240 Z M586,230 C586,231.104569 585.104569,232 584,232 C582.895431,232 582,231.104569 582,230 L582,225.998802 C582,219.372399 576.627273,214 570,214 C563.371469,214 558,219.37146 558,225.998802 L558,230 C558,231.104569 557.104569,232 556,232 C554.895431,232 554,231.104569 554,230 L554,225.998802 C554,217.16232 561.162332,210 570,210 C578.836357,210 586,217.163205 586,225.998802 L586,230 Z M570,205 C565.029437,205 561,200.970563 561,196 C561,191.029437 565.029437,187 570,187 C574.970563,187 579,191.029437 579,196 C579,200.970563 574.970563,205 570,205 Z M570,201 C572.761424,201 575,198.761424 575,196 C575,193.238576 572.761424,191 570,191 C567.238576,191 565,193.238576 565,196 C565,198.761424 567.238576,201 570,201 Z" transform="translate(-536 -176)"/></svg>